# xmcd
#
# Track frame offsets:
#	150
#	11216
#	22352
#	37569
#	51362
#	62778
#	75662
#	88316
#	99209
#	112047
#	129287
#	141411
#	153268
#	161721
#	173913
#	185842
#	202562
#	216266
#	228729
#	241885
#	252899
#	264380
#	277327
#	289398
#
# Disc length: 4036 seconds
#
# Revision: 1
# Processed by: cddbd v1.5.2PL0 Copyright (c) Steve Scherf et al.
# Submitted via: audiograbber 1.82.01
#
DISCID=630fc218
DTITLE=Various Artist - 100% Country Hits
DYEAR=2002
DGENRE=Country
TTITLE0=Linda Ronstadt - Silver Threads and Golden Needles
TTITLE1=Leroy Pullins - I'm A Nut
TTITLE2=Dick Feller - The Credit Card Song
TTITLE3=Tanya Tucker - If Your Heart Ain't Busy Tonight
TTITLE4=Bobby Bare - Music Sity USA
TTITLE5=Dr. Hook - When You're In Love With A Beautiful Woman
TTITLE6=Faron Vong - It's Four In The Morning
TTITLE7=Little Jimmy Dickens - May The Bird Of Paradise Fly Up Your Nose
TTITLE8=Tom T. Hall - I Like Beer
TTITLE9=Nitty Gritty Dirt Band - Workin Man
TTITLE10=Merle Haggard -  Okie From Musikogee
TTITLE11=Alabama - Mountain Music
TTITLE12=Pincard and Bowden - Elvis Was A Narc
TTITLE13=Randy Travis - Heart Of Hearts
TTITLE14=Trisha Yearwood - That's What I Like About You
TTITLE15=Ray Stevens - Missisippi Squirrel Revival
TTITLE16=Patsy Cline - A Church, A Courtroom, Then Goodbye
TTITLE17=Charley Pride - Cristal Chandeliers
TTITLE18=Lynn Anderson - Rose Garden
TTITLE19=Conway Twitty - Helo Darlin'
TTITLE20=Tommy Overstreet - Heaven Is My Woman's Love
TTITLE21=Wanda Jackson - I Fall To Pieces
TTITLE22=Johnny Cash - I Walk The Line
TTITLE23=Loretta Lynn - Coal Miners Daughter
EXTD=
EXTT0=
EXTT1=
EXTT2=
EXTT3=
EXTT4=
EXTT5=
EXTT6=
EXTT7=
EXTT8=
EXTT9=
EXTT10=
EXTT11=
EXTT12=
EXTT13=
EXTT14=
EXTT15=
EXTT16=
EXTT17=
EXTT18=
EXTT19=
EXTT20=
EXTT21=
EXTT22=
EXTT23=
PLAYORDER=
